<svg xmlns="http://www.w3.org/2000/svg" viewBox="0 0 192 192">
  <rect width="192" height="192" rx="40" fill="#071120"/>
  <circle cx="96" cy="96" r="64" fill="#f97316"/>
  <path d="M96 46c-27.6 0-50 22.4-50 50s22.4 50 50 50 50-22.4 50-50S123.6 46 96 46Zm0 18c16.6 0 30 13.4 30 30 0 12.9-8.1 23.9-19.5 28.2v10.8H85.5v-10.8C74.1 117.9 66 106.9 66 94c0-16.6 13.4-30 30-30Zm0 15a15 15 0 1 0 0 30 15 15 0 0 0 0-30Zm0 58a10 10 0 1 1 0 20 10 10 0 0 1 0-20Z" fill="#fff7ed"/>
  <path d="M39 48 63 22m90 26 18-18M23 97h24m122 0h24m-30 62-18-18M57 171l-18 18" stroke="#38bdf8" stroke-width="10" stroke-linecap="round"/>
</svg>
