<svg xmlns="http://www.w3.org/2000/svg" viewBox="0 0 512 512">
  <rect width="512" height="512" rx="104" fill="#071120"/>
  <circle cx="256" cy="256" r="172" fill="#f97316"/>
  <path d="M256 122c-74 0-134 60-134 134 0 57 35 105 85 124v33h57v-33c49-19 85-67 85-124 0-74-60-134-134-134Zm0 48c47.5 0 86 38.5 86 86 0 36.9-23.2 68.3-55.8 80.7V368h-60.4v-31.3c-32.6-12.4-55.8-43.8-55.8-80.7 0-47.5 38.5-86 86-86Zm0 42a43 43 0 1 0 0 86 43 43 0 0 0 0-86Zm0 166a28 28 0 1 1 0 56 28 28 0 0 1 0-56Z" fill="#fff7ed"/>
  <path d="M103 128 166 65m243 63 45-45M61 258h64m326 0h64m-81 153-45-45M148 447l-45 45" stroke="#38bdf8" stroke-width="24" stroke-linecap="round"/>
</svg>
